<mxfile host="app.diagrams.net" modified="2021-06-08T03:53:11.282Z" agent="5.0 (Windows NT 10.0; Win64; x64) AppleWebKit/537.36 (KHTML, like Gecko) Chrome/90.0.4430.212 Safari/537.36" etag="mvp5M0Xfyn1At-lgBZ2_" version="14.6.13" type="github">
  <diagram id="87LNFzpWVNBMK7Gw0o0t" name="Page-1">
    <mxGraphModel dx="782" dy="475" grid="1" gridSize="10" guides="1" tooltips="1" connect="1" arrows="1" fold="1" page="1" pageScale="1" pageWidth="850" pageHeight="1100" math="0" shadow="0">
      <root>
        <mxCell id="0" />
        <mxCell id="1" parent="0" />
        <mxCell id="frIw0XrVh3BfgqBJoF9k-1" value="Actor" style="shape=umlActor;verticalLabelPosition=bottom;verticalAlign=top;html=1;outlineConnect=0;" vertex="1" parent="1">
          <mxGeometry x="70" y="350" width="30" height="60" as="geometry" />
        </mxCell>
        <mxCell id="frIw0XrVh3BfgqBJoF9k-8" style="edgeStyle=orthogonalEdgeStyle;rounded=0;orthogonalLoop=1;jettySize=auto;html=1;entryX=0;entryY=0.5;entryDx=0;entryDy=0;sketch=1;curved=1;" edge="1" parent="1" source="frIw0XrVh3BfgqBJoF9k-2" target="frIw0XrVh3BfgqBJoF9k-4">
          <mxGeometry relative="1" as="geometry" />
        </mxCell>
        <mxCell id="frIw0XrVh3BfgqBJoF9k-2" value="&lt;font style=&quot;font-size: 10px&quot;&gt;tcpbypss-ebpf-daemonset.yaml&lt;/font&gt;" style="shape=note;whiteSpace=wrap;html=1;backgroundOutline=1;darkOpacity=0.05;" vertex="1" parent="1">
          <mxGeometry x="240" y="330" width="80" height="100" as="geometry" />
        </mxCell>
        <mxCell id="frIw0XrVh3BfgqBJoF9k-11" style="edgeStyle=orthogonalEdgeStyle;rounded=0;orthogonalLoop=1;jettySize=auto;html=1;entryX=0.464;entryY=0.958;entryDx=0;entryDy=0;entryPerimeter=0;curved=1;sketch=1;" edge="1" parent="1" source="frIw0XrVh3BfgqBJoF9k-4" target="frIw0XrVh3BfgqBJoF9k-10">
          <mxGeometry relative="1" as="geometry" />
        </mxCell>
        <mxCell id="frIw0XrVh3BfgqBJoF9k-12" value="pull" style="edgeLabel;html=1;align=center;verticalAlign=middle;resizable=0;points=[];fontSize=17;fontStyle=1;fontFamily=Comic Sans MS;" vertex="1" connectable="0" parent="frIw0XrVh3BfgqBJoF9k-11">
          <mxGeometry x="-0.253" y="57" relative="1" as="geometry">
            <mxPoint as="offset" />
          </mxGeometry>
        </mxCell>
        <mxCell id="frIw0XrVh3BfgqBJoF9k-4" value="k8s" style="rounded=1;whiteSpace=wrap;html=1;" vertex="1" parent="1">
          <mxGeometry x="510" y="410" width="470" height="60" as="geometry" />
        </mxCell>
        <mxCell id="frIw0XrVh3BfgqBJoF9k-5" value="Istio" style="rounded=1;whiteSpace=wrap;html=1;" vertex="1" parent="1">
          <mxGeometry x="800" y="340" width="170" height="60" as="geometry" />
        </mxCell>
        <mxCell id="frIw0XrVh3BfgqBJoF9k-7" value="Host" style="rounded=1;whiteSpace=wrap;html=1;" vertex="1" parent="1">
          <mxGeometry x="510" y="480" width="470" height="60" as="geometry" />
        </mxCell>
        <mxCell id="frIw0XrVh3BfgqBJoF9k-9" value="tcpbypass Daemonset" style="rounded=1;whiteSpace=wrap;html=1;" vertex="1" parent="1">
          <mxGeometry x="510" y="340" width="170" height="60" as="geometry" />
        </mxCell>
        <mxCell id="frIw0XrVh3BfgqBJoF9k-13" style="edgeStyle=orthogonalEdgeStyle;curved=1;rounded=0;sketch=1;orthogonalLoop=1;jettySize=auto;html=1;entryX=0.5;entryY=0;entryDx=0;entryDy=0;" edge="1" parent="1" source="frIw0XrVh3BfgqBJoF9k-10" target="frIw0XrVh3BfgqBJoF9k-9">
          <mxGeometry relative="1" as="geometry" />
        </mxCell>
        <mxCell id="frIw0XrVh3BfgqBJoF9k-10" value="Image Repo" style="ellipse;shape=cloud;whiteSpace=wrap;html=1;" vertex="1" parent="1">
          <mxGeometry x="1155" y="130" width="120" height="80" as="geometry" />
        </mxCell>
      </root>
    </mxGraphModel>
  </diagram>
</mxfile>
